<svg width="200" height="200" viewBox="0 0 200 200" fill="none" xmlns="http://www.w3.org/2000/svg">
<g clip-path="url(#clip0_3099_2)">
<path fill-rule="evenodd" clip-rule="evenodd" d="M-0.5 -0.5C66.1667 -0.5 132.833 -0.5 199.5 -0.5C199.5 66.1667 199.5 132.833 199.5 199.5C132.833 199.5 66.1667 199.5 -0.5 199.5C-0.5 132.833 -0.5 66.1667 -0.5 -0.5Z" fill="#FDFDFC"/>
<path fill-rule="evenodd" clip-rule="evenodd" d="M122.941 80.1988C143.096 80.9554 163.404 81.4101 183.868 81.5629C184.701 81.816 185.307 82.2707 185.687 82.9269C180.125 86.2093 174.669 89.6952 169.319 93.3845C149.616 93.9908 129.914 93.9908 110.21 93.3845C106.792 84.1002 103.307 74.855 99.7529 65.6491C95.9259 74.857 92.7432 84.2537 90.2046 93.8392C70.1965 93.9907 50.1907 93.8392 30.1871 93.3845C24.5348 89.3932 18.7756 85.6041 12.9093 82.0175C34.4308 81.4113 55.9522 80.8051 77.4736 80.1988C78.6466 79.6917 79.4044 78.7823 79.747 77.4708C85.7934 58.5612 92.6136 40.071 100.208 22C107.293 40.6805 114.113 59.4738 120.668 78.3801C121.047 79.5223 121.805 80.1284 122.941 80.1988Z" fill="#070606"/>
<path fill-rule="evenodd" clip-rule="evenodd" d="M77.4737 80.1989C55.9522 80.8051 34.4308 81.4113 12.9094 82.0176C12.4155 81.963 12.1124 81.6599 12 81.1082C33.8161 80.1991 55.6407 79.896 77.4737 80.1989Z" fill="#2A2927"/>
<path fill-rule="evenodd" clip-rule="evenodd" d="M122.942 80.1989C144.774 79.896 166.599 80.1991 188.415 81.1082C187.636 81.9496 186.727 82.5558 185.687 82.9269C185.307 82.2707 184.701 81.8161 183.868 81.5629C163.404 81.4101 143.096 80.9555 122.942 80.1989Z" fill="#2A2927"/>
<path fill-rule="evenodd" clip-rule="evenodd" d="M51.1024 108.389C62.172 107.184 73.3873 107.184 84.7486 108.389C80.4673 119.414 76.8299 130.326 73.8363 141.126C82.4713 135.14 91.2617 129.381 100.208 123.848C108.695 129.607 117.183 135.367 125.67 141.126C123.014 130.129 119.377 119.217 114.757 108.389C125.961 107.329 137.176 107.177 148.404 107.934C143.165 110.606 138.618 114.092 134.763 118.392C141.589 138.109 148.105 157.812 154.314 177.5C136.118 165.362 117.931 153.237 99.753 141.126C81.4974 152.907 63.4618 165.032 45.6462 177.5C51.5107 157.788 58.1794 138.086 65.6521 118.392C61.2904 114.331 56.4406 110.997 51.1024 108.389Z" fill="#070708"/>
</g>
<defs>
<clipPath id="clip0_3099_2">
<rect width="200" height="200" fill="white"/>
</clipPath>
</defs>
</svg>
